<svg width="3100" height="1086" viewBox="0 0 3100 1086" fill="none" xmlns="http://www.w3.org/2000/svg">
<path d="M1457.17 1004.25C1361.89 1098.9 1211.4 1105.96 1116.78 1024.92C1057.92 974.504 1025.78 910.237 1025.11 832.439C1023.96 699.757 1024.69 567.061 1024.27 434.372C1024.19 409.371 1022.67 384.365 1021.42 359.38C1020.43 339.374 1028.76 331.062 1049.44 331.235C1128.64 331.896 1207.85 332.175 1287.03 330.844C1310.26 330.454 1317.53 338.285 1317.39 360.906C1316.66 482.743 1317.04 604.586 1317.04 726.426C1317.04 734.772 1316.91 743.119 1317.06 751.461C1317.79 790.352 1330.37 810.481 1361.14 822.185C1395.27 835.168 1424.43 827.774 1449.97 801.816C1595.57 653.81 1742.67 507.242 1886.39 357.428C1921.33 321.01 2006.76 325.911 2034.33 364.435C2057.72 397.121 2060.61 428.017 2037.19 461.004C2029.57 471.746 2020.43 482.043 2035.46 492.646C2049.65 502.662 2059.12 491.684 2066.78 481.857C2092.51 448.846 2098.73 412.239 2081.09 373.876C2060.82 329.78 2026.99 300.233 1977.2 299.377C1875.52 297.629 1773.8 299.119 1672.09 298.986C1661.69 298.972 1650.63 301.857 1639.17 294.318C1648.83 277.791 1666.51 270.509 1678.43 257.354C1726.56 204.2 1775.87 152.102 1823.76 98.7278C1950.68 -42.738 2180.36 -6.71327 2252.98 169.156C2293.25 266.673 2272.96 359.195 2201.35 435.69C2106.19 537.333 2006.88 635.07 1909.92 735.036C1888.13 757.495 1860.75 757.234 1833.48 758.375C1799.41 759.801 1765.33 758.164 1731.27 762.957C1687.52 769.115 1654.11 791.251 1625.02 823.136C1569.95 883.509 1513.99 943.075 1457.17 1004.25Z" fill="url(#paint0_linear_42_23)"/>
<path d="M443.369 99.5881C452.284 85.1178 464.882 85.4408 477.618 85.4601C562.669 85.5893 647.721 85.594 732.772 85.5882C748.666 85.5871 769.9 87.1829 770.374 66.8163C770.895 44.4168 748.678 48.8642 733.591 48.7607C681.895 48.4061 630.196 48.6866 578.498 48.6461C561.77 48.6329 544.664 47.1547 544.903 24.9513C545.13 3.88007 560.618 0.424263 578.208 0.426557C1004.3 0.483731 1430.39 0.392317 1856.48 0.520263C1864.24 0.522557 1873.15 -2.14951 1879.13 4.59563C1880.47 9.50594 1878.19 12.1529 1875.38 13.8237C1803.37 56.6733 1757.03 125.665 1701.69 185.368C1663.42 226.646 1624.76 266.616 1570.09 286.125C1547.93 294.032 1525.31 298.761 1501.67 298.764C1151.46 298.804 801.251 298.922 451.041 299C444.373 299.001 437.629 299.325 431.055 298.47C417.613 296.721 410.072 288.606 409.711 275.032C409.362 261.897 417.964 255.28 429.468 252.93C437.53 251.283 446.03 251.41 454.336 251.399C553.562 251.273 652.788 251.271 752.014 251.229C757.851 251.226 763.688 251.174 769.524 251.127C782.12 251.025 794.618 248.587 794.242 233.132C793.881 218.333 781.727 214.965 769.048 215.081C695.7 215.752 622.353 216.654 549.003 217.152C539.098 217.219 528.998 216.329 519.316 214.309C508.413 212.033 501.489 203.983 501.664 192.933C501.856 180.855 508.998 172.119 521.499 170.963C540.548 169.202 559.71 168.148 578.839 167.883C617.189 167.352 655.551 167.742 693.905 167.353C705.824 167.233 719.383 166.252 719.445 150.219C719.507 134.037 705.983 133.291 694.013 133.253C623.139 133.025 552.262 133.252 481.389 132.852C450.656 132.679 443.289 126.201 443.369 99.5881Z" fill="url(#paint1_linear_42_23)"/>
<path d="M2532 821.371C2520.41 839.942 2503.42 839.441 2486.58 839.435C2404.05 839.407 2321.51 839.392 2238.98 839.374C2233.97 839.373 2228.97 839.36 2223.97 839.39C2211.14 839.464 2195.48 839.481 2195.76 856.122C2196.02 872.3 2210.66 876.877 2225.22 875.803C2281.01 871.691 2336.88 874.12 2392.7 873.222C2400.19 873.101 2407.8 872.931 2415.15 874.116C2429.59 876.447 2441.19 883.103 2439.72 899.994C2438.33 915.917 2425.77 919.819 2412.53 919.926C2365.01 920.308 2317.49 920.002 2269.97 920.137C2256.63 920.174 2239.94 918.812 2240.45 937.893C2240.91 954.976 2255.96 957.146 2270.22 956.996C2341.06 956.254 2411.94 958.763 2482.73 954.087C2489.36 953.649 2496.2 953.15 2502.69 954.21C2517.27 956.593 2528.41 964.589 2527.91 980.302C2527.46 994.666 2516.84 1002.16 2503.04 1003.95C2495.65 1004.91 2488.07 1004.56 2480.58 1004.58C2388.03 1004.78 2295.49 1004.94 2202.95 1005.11C2200.45 1005.12 2197.95 1005.17 2195.45 1005.19C2183.99 1005.26 2171.42 1006.82 2171.43 1020.84C2171.45 1035.64 2183.95 1038.6 2196.7 1038.6C2234.21 1038.59 2271.73 1038.62 2309.25 1038.76C2319.24 1038.8 2329.3 1038.69 2339.22 1039.7C2353.02 1041.11 2363.8 1047.56 2363.36 1063.03C2362.93 1078.04 2353.04 1084.93 2338.59 1085.6C2333.6 1085.83 2328.59 1085.82 2323.59 1085.82C2033.46 1085.74 1743.32 1085.69 1453.19 1085.47C1444.36 1085.46 1434.9 1087.98 1427.21 1082.12C1424.98 1077.98 1426.41 1074.77 1429.06 1072.72C1499.51 1018.24 1557.21 950.497 1614.05 883.359C1669.97 817.299 1733.43 790.2 1820.04 790.126C1987.56 789.982 2155.08 791.224 2322.6 791.028C2380.02 790.961 2437.52 793.712 2494.97 789.292C2515.62 787.704 2534.43 791.598 2532 821.371Z" fill="url(#paint2_linear_42_23)"/>
<path d="M2222.13 754.799C2167.16 754.75 2114.64 754.732 2062.11 754.632C2054.62 754.618 2047.03 754.882 2039.65 753.843C2024.83 751.755 2013.88 743.479 2013.99 728.003C2014.1 712 2027.62 707.926 2040.59 707.557C2070.58 706.704 2100.6 707.028 2130.61 706.971C2167.3 706.901 2203.98 706.729 2240.66 706.998C2259.72 707.138 2284.27 704.759 2284.16 731.585C2284.06 756.764 2260.44 754.517 2242.08 754.818C2236.25 754.914 2230.41 754.814 2222.13 754.799Z" fill="url(#paint3_linear_42_23)"/>
<path d="M786.055 380.576C772.767 372.764 767.684 363.39 773.166 350.293C778.102 338.499 788.052 335.859 799.679 335.886C852.889 336.011 906.099 335.967 959.309 335.967C974.575 335.966 986.63 341.962 986.322 358.371C986.036 373.657 974.543 383.084 959.876 383.146C902.589 383.391 845.251 386.204 786.055 380.576Z" fill="url(#paint4_linear_42_23)"/>
<path d="M2571.4 1085.88C2522.59 1085.82 2476.13 1085.63 2429.67 1085.76C2413.51 1085.8 2397.77 1083.38 2396.88 1063.84C2395.9 1042.46 2413.19 1038.75 2429.6 1038.49C2476.87 1037.77 2524.17 1038.26 2571.45 1037.82C2589.03 1037.66 2605.23 1042.32 2606.46 1061.43C2607.79 1082.01 2591.3 1086.46 2571.4 1085.88Z" fill="url(#paint5_linear_42_23)"/>
<path d="M695.248 335.827C700.944 335.841 704.273 335.904 707.602 335.869C723.938 335.699 736.686 342.135 736.175 359.68C735.675 376.863 722.289 383.217 706.496 383.451C682.364 383.809 658.223 383.676 634.087 383.617C610.785 383.56 587.459 383.919 564.189 382.976C548.84 382.354 535.178 376.251 535.663 358.278C536.154 340.117 549.645 335.907 565.536 335.961C607.984 336.107 650.433 335.899 695.248 335.827Z" fill="url(#paint6_linear_42_23)"/>
<path d="M450.731 48.3573C419.096 48.4011 389.911 48.4534 360.726 48.4857C343.908 48.5043 329.735 43.4801 329.873 23.9609C330.013 4.16374 344.558 0.327146 361.273 0.383098C402.131 0.519755 442.991 0.41428 483.849 0.194463C498.77 0.114208 511.083 3.88874 512.015 21.243C512.966 38.9469 502 46.8445 485.688 47.9623C474.894 48.7017 464.02 48.2666 450.731 48.3573Z" fill="url(#paint7_linear_42_23)"/>
<path d="M3003.18 1005.31C2985.75 1005.17 2970.7 1005.94 2955.85 1004.61C2941.85 1003.36 2932.21 994.617 2932.43 980.168C2932.66 965.461 2942.66 957.6 2957.03 957.449C2996.11 957.04 3035.19 957.168 3074.27 957.352C3088.47 957.419 3098.91 963.705 3099.92 978.847C3101.03 995.371 3090.25 1003.65 3075.47 1004.5C3052.26 1005.83 3028.93 1005.14 3003.18 1005.31Z" fill="url(#paint8_linear_42_23)"/>
<path d="M2733.81 982.954C2735.88 962.326 2747.47 956.701 2764.91 957.003C2798.88 957.591 2832.86 957.393 2866.84 957.131C2882.58 957.01 2896.98 961.157 2897.11 978.765C2897.24 996.37 2884.06 1004.49 2866.81 1004.61C2832.83 1004.85 2798.85 1004.7 2764.87 1005.06C2749.85 1005.22 2739.44 999.147 2733.81 982.954Z" fill="url(#paint9_linear_42_23)"/>
<path d="M386.614 167.562C407.265 167.506 425.557 166.773 443.771 167.648C457.699 168.317 471.354 172.591 471.768 189.751C472.15 205.551 461.735 213.518 446.718 215.495C413.659 219.848 380.422 218.189 347.29 217.322C333.452 216.96 323.727 208.083 323.271 193.435C322.794 178.072 332.912 171.394 347.011 170.115C359.39 168.992 371.817 168.403 386.614 167.562Z" fill="url(#paint10_linear_42_23)"/>
<path d="M395.605 129.636C354.856 135.718 315.838 133.335 276.919 132.413C262.406 132.069 250.563 123.169 250.967 107.505C251.383 91.336 263.56 85.5828 278.747 85.625C312.794 85.7198 346.843 85.8147 380.889 85.6175C393.497 85.5446 404.493 88.5796 409.253 101.284C413.811 113.448 406.722 121.801 395.605 129.636Z" fill="url(#paint11_linear_42_23)"/>
<path d="M2596.16 836.905C2578.35 835.335 2565.46 829.901 2566.57 811.591C2567.76 792.192 2582.35 788.228 2598.55 788.22C2624.21 788.209 2649.89 787.98 2675.52 788.928C2690.68 789.488 2704.05 795.041 2703.87 813.36C2703.69 831.432 2690.39 837.422 2675.28 837.825C2649.66 838.508 2623.99 837.521 2596.16 836.905Z" fill="url(#paint12_linear_42_23)"/>
<path d="M2561.01 975.611C2565.55 960.736 2575.09 956.252 2588.13 956.139C2614.69 955.91 2641.25 954.812 2667.82 954.725C2684.53 954.67 2702.13 958.044 2702.31 978.482C2702.48 997.751 2686.92 1004.32 2669.22 1004.46C2643.46 1004.67 2617.7 1004.78 2591.93 1004.76C2573.71 1004.74 2561.37 997.686 2561.01 975.611Z" fill="url(#paint13_linear_42_23)"/>
<path d="M2790.2 1060.09C2789.09 1078.42 2778.51 1085.09 2763.69 1085.36C2733.05 1085.93 2702.4 1085.63 2671.76 1085.73C2656.36 1085.77 2645 1078.65 2644.11 1063.26C2643.17 1047.07 2655.68 1039.37 2670.05 1038.96C2702.31 1038.02 2734.63 1038.33 2766.9 1039.12C2778.49 1039.4 2787.15 1045.93 2790.2 1060.09Z" fill="url(#paint14_linear_42_23)"/>
<path d="M9.98794 174.047C42.7831 165.335 74.4312 167.776 105.937 168.675C121.838 169.129 134.681 177.12 134.382 193.909C134.087 210.511 121.226 218.282 105.286 218.544C78.683 218.982 51.9917 219.775 25.4764 218.151C-1.0418 216.527 -7.98084 197.545 9.98794 174.047Z" fill="url(#paint15_linear_42_23)"/>
<path d="M2485.22 878.835C2522.74 867.651 2559.26 872.952 2595.48 873.81C2608.03 874.107 2617.36 883.288 2616.56 897.053C2615.82 909.984 2608.16 919.201 2594.4 919.493C2562.91 920.162 2531.34 921.165 2499.92 919.662C2475.88 918.512 2469.72 901.604 2485.22 878.835Z" fill="url(#paint16_linear_42_23)"/>
<path d="M2454.72 715.098C2466.56 741.348 2460.07 753.652 2434.4 754.567C2406.12 755.574 2377.78 755.025 2349.47 754.659C2334.7 754.468 2322.23 748.609 2321.62 732.237C2320.95 714.354 2333.9 706.8 2349.59 707.548C2384.15 709.194 2419.38 700.453 2454.72 715.098Z" fill="url(#paint17_linear_42_23)"/>
<path d="M2656.94 911.563C2646.84 887.818 2652.13 875.186 2674.35 873.746C2704.02 871.822 2733.93 872.903 2763.72 873.584C2775.5 873.853 2784.61 880.646 2786.85 892.613C2789.23 905.298 2780.2 916.232 2770.44 917.08C2733.08 920.328 2695.17 927.283 2656.94 911.563Z" fill="url(#paint18_linear_42_23)"/>
<path d="M338.857 251.064C357.883 252.281 371.775 259.039 369.919 277.67C368.264 294.287 354.178 299.329 338.553 299.249C313.725 299.12 288.895 299.32 264.068 299.129C248.58 299.01 235.04 294.416 234.575 276.3C234.074 256.805 248.097 251.445 264.595 251.19C288.591 250.819 312.596 251.038 338.857 251.064Z" fill="url(#paint19_linear_42_23)"/>
<path d="M2822.36 791.357C2827.25 791.364 2829.74 791.39 2832.23 791.378C2850.1 791.285 2870.92 790.327 2870.27 815.285C2869.59 841.489 2846.65 835.574 2830.31 836.366C2807.99 837.448 2785.56 838.183 2763.28 837.074C2747.84 836.305 2731.61 831.249 2733.34 811.356C2734.92 793.239 2750 791.165 2765.19 791.389C2783.44 791.657 2801.7 791.391 2822.36 791.357Z" fill="url(#paint20_linear_42_23)"/>
<path d="M136.498 133.207C114.844 132.136 89.1593 137.133 90.2052 107.354C91.2142 78.6289 116.824 86.595 134.536 85.7886C153.531 84.9237 172.608 85.4832 191.639 85.8813C206.131 86.1842 215.534 94.133 216.562 108.366C217.66 123.577 207.084 131.275 193.463 132.342C175.356 133.76 157.08 133.025 136.498 133.207Z" fill="url(#paint21_linear_42_23)"/>
<path d="M2906.38 920.134C2886.69 920.158 2869.33 920.1 2851.96 920.187C2835.56 920.268 2819.52 915.401 2819.23 897.475C2818.91 878.046 2835.7 872.86 2852.81 872.593C2871 872.308 2889.21 872.758 2907.39 872.361C2924.57 871.987 2941.11 874.963 2941.73 895.458C2942.37 916.197 2925.67 919.764 2906.38 920.134Z" fill="url(#paint22_linear_42_23)"/>
<defs>
<linearGradient id="paint0_linear_42_23" x1="2744.56" y1="0.444623" x2="2080.05" y2="1754.59" gradientUnits="userSpaceOnUse">
<stop stop-color="#011926"/>
<stop offset="0.48" stop-color="#1C92D0"/>
<stop offset="1" stop-color="#042335"/>
</linearGradient>
<linearGradient id="paint1_linear_42_23" x1="27.7514" y1="408.271" x2="1866.76" y2="0.307063" gradientUnits="userSpaceOnUse">
<stop stop-color="#018AE8"/>
<stop offset="1" stop-color="#092D4F"/>
</linearGradient>
<linearGradient id="paint2_linear_42_23" x1="2943.29" y1="844.304" x2="1437.33" y2="1085.81" gradientUnits="userSpaceOnUse">
<stop stop-color="#018BE9"/>
<stop offset="1" stop-color="#092D4F"/>
</linearGradient>
<linearGradient id="paint3_linear_42_23" x1="2943.29" y1="844.304" x2="1437.33" y2="1085.81" gradientUnits="userSpaceOnUse">
<stop stop-color="#018BE9"/>
<stop offset="1" stop-color="#092D4F"/>
</linearGradient>
<linearGradient id="paint4_linear_42_23" x1="27.7514" y1="408.271" x2="1866.76" y2="0.307063" gradientUnits="userSpaceOnUse">
<stop stop-color="#018AE8"/>
<stop offset="1" stop-color="#092D4F"/>
</linearGradient>
<linearGradient id="paint5_linear_42_23" x1="2943.29" y1="844.304" x2="1437.33" y2="1085.81" gradientUnits="userSpaceOnUse">
<stop stop-color="#018BE9"/>
<stop offset="1" stop-color="#092D4F"/>
</linearGradient>
<linearGradient id="paint6_linear_42_23" x1="27.7514" y1="408.271" x2="1866.76" y2="0.307063" gradientUnits="userSpaceOnUse">
<stop stop-color="#018AE8"/>
<stop offset="1" stop-color="#092D4F"/>
</linearGradient>
<linearGradient id="paint7_linear_42_23" x1="27.7514" y1="408.271" x2="1866.76" y2="0.307063" gradientUnits="userSpaceOnUse">
<stop stop-color="#018AE8"/>
<stop offset="1" stop-color="#092D4F"/>
</linearGradient>
<linearGradient id="paint8_linear_42_23" x1="2943.29" y1="844.304" x2="1437.33" y2="1085.81" gradientUnits="userSpaceOnUse">
<stop stop-color="#018BE9"/>
<stop offset="1" stop-color="#092D4F"/>
</linearGradient>
<linearGradient id="paint9_linear_42_23" x1="2943.29" y1="844.304" x2="1437.33" y2="1085.81" gradientUnits="userSpaceOnUse">
<stop stop-color="#018BE9"/>
<stop offset="1" stop-color="#092D4F"/>
</linearGradient>
<linearGradient id="paint10_linear_42_23" x1="27.7514" y1="408.271" x2="1866.76" y2="0.307063" gradientUnits="userSpaceOnUse">
<stop stop-color="#018AE8"/>
<stop offset="1" stop-color="#092D4F"/>
</linearGradient>
<linearGradient id="paint11_linear_42_23" x1="27.7514" y1="408.271" x2="1866.76" y2="0.307063" gradientUnits="userSpaceOnUse">
<stop stop-color="#018AE8"/>
<stop offset="1" stop-color="#092D4F"/>
</linearGradient>
<linearGradient id="paint12_linear_42_23" x1="2943.29" y1="844.304" x2="1437.33" y2="1085.81" gradientUnits="userSpaceOnUse">
<stop stop-color="#018BE9"/>
<stop offset="1" stop-color="#092D4F"/>
</linearGradient>
<linearGradient id="paint13_linear_42_23" x1="2943.29" y1="844.304" x2="1437.33" y2="1085.81" gradientUnits="userSpaceOnUse">
<stop stop-color="#018BE9"/>
<stop offset="1" stop-color="#092D4F"/>
</linearGradient>
<linearGradient id="paint14_linear_42_23" x1="2943.29" y1="844.304" x2="1437.33" y2="1085.81" gradientUnits="userSpaceOnUse">
<stop stop-color="#018BE9"/>
<stop offset="1" stop-color="#092D4F"/>
</linearGradient>
<linearGradient id="paint15_linear_42_23" x1="27.7514" y1="408.271" x2="1866.76" y2="0.307063" gradientUnits="userSpaceOnUse">
<stop stop-color="#018AE8"/>
<stop offset="1" stop-color="#092D4F"/>
</linearGradient>
<linearGradient id="paint16_linear_42_23" x1="2943.29" y1="844.304" x2="1437.33" y2="1085.81" gradientUnits="userSpaceOnUse">
<stop stop-color="#018BE9"/>
<stop offset="1" stop-color="#092D4F"/>
</linearGradient>
<linearGradient id="paint17_linear_42_23" x1="2943.29" y1="844.304" x2="1437.33" y2="1085.81" gradientUnits="userSpaceOnUse">
<stop stop-color="#018BE9"/>
<stop offset="1" stop-color="#092D4F"/>
</linearGradient>
<linearGradient id="paint18_linear_42_23" x1="2943.29" y1="844.304" x2="1437.33" y2="1085.81" gradientUnits="userSpaceOnUse">
<stop stop-color="#018BE9"/>
<stop offset="1" stop-color="#092D4F"/>
</linearGradient>
<linearGradient id="paint19_linear_42_23" x1="27.7514" y1="408.271" x2="1866.76" y2="0.307063" gradientUnits="userSpaceOnUse">
<stop stop-color="#018AE8"/>
<stop offset="1" stop-color="#092D4F"/>
</linearGradient>
<linearGradient id="paint20_linear_42_23" x1="2943.29" y1="844.304" x2="1437.33" y2="1085.81" gradientUnits="userSpaceOnUse">
<stop stop-color="#018BE9"/>
<stop offset="1" stop-color="#092D4F"/>
</linearGradient>
<linearGradient id="paint21_linear_42_23" x1="27.7514" y1="408.271" x2="1866.76" y2="0.307063" gradientUnits="userSpaceOnUse">
<stop stop-color="#018AE8"/>
<stop offset="1" stop-color="#092D4F"/>
</linearGradient>
<linearGradient id="paint22_linear_42_23" x1="2943.29" y1="844.304" x2="1437.33" y2="1085.81" gradientUnits="userSpaceOnUse">
<stop stop-color="#018BE9"/>
<stop offset="1" stop-color="#092D4F"/>
</linearGradient>
</defs>
</svg>
